<?xml version="1.0" standalone="no"?>
<!DOCTYPE svg PUBLIC "-//W3C//DTD SVG 20010904//EN"
 "http://www.w3.org/TR/2001/REC-SVG-20010904/DTD/svg10.dtd">
<svg version="1.0" xmlns="http://www.w3.org/2000/svg"
 width="1585.000000pt" height="539.000000pt" viewBox="0 0 1585.000000 539.000000"
 preserveAspectRatio="xMidYMid meet">

<g transform="translate(0.000000,539.000000) scale(0.100000,-0.100000)"
fill="#000000" stroke="none">
<path d="M0 4635 l0 -25 7925 0 7925 0 0 25 0 25 -7925 0 -7925 0 0 -25z"/>
<path d="M160 2610 c0 -20 7 -20 320 -20 313 0 320 0 320 20 0 20 -7 20 -320
20 -313 0 -320 0 -320 -20z"/>
<path d="M1510 2610 c0 -20 7 -20 320 -20 313 0 320 0 320 20 0 20 -7 20 -320
20 -313 0 -320 0 -320 -20z"/>
<path d="M2860 2610 c0 -20 7 -20 320 -20 313 0 320 0 320 20 0 20 -7 20 -320
20 -313 0 -320 0 -320 -20z"/>
<path d="M4210 2610 c0 -20 7 -20 320 -20 313 0 320 0 320 20 0 20 -7 20 -320
20 -313 0 -320 0 -320 -20z"/>
<path d="M5562 2613 c3 -17 28 -18 321 -21 312 -2 317 -2 317 18 0 20 -6 20
-321 20 -300 0 -320 -1 -317 -17z"/>
<path d="M6920 2610 c0 -20 5 -20 317 -18 293 3 318 4 321 21 3 16 -17 17
-317 17 -315 0 -321 0 -321 -20z"/>
<path d="M8270 2610 c0 -20 5 -20 317 -18 293 3 318 4 321 21 3 16 -17 17
-317 17 -315 0 -321 0 -321 -20z"/>
<path d="M9620 2610 c0 -20 7 -20 320 -20 313 0 320 0 320 20 0 20 -7 20 -320
20 -313 0 -320 0 -320 -20z"/>
<path d="M10970 2610 c0 -20 7 -20 320 -20 313 0 320 0 320 20 0 20 -7 20
-320 20 -313 0 -320 0 -320 -20z"/>
<path d="M12320 2610 c0 -20 7 -20 320 -20 313 0 320 0 320 20 0 20 -7 20
-320 20 -313 0 -320 0 -320 -20z"/>
<path d="M13670 2610 c0 -20 7 -20 320 -20 313 0 320 0 320 20 0 20 -7 20
-320 20 -313 0 -320 0 -320 -20z"/>
<path d="M15020 2610 c0 -20 7 -20 320 -20 313 0 320 0 320 20 0 20 -7 20
-320 20 -313 0 -320 0 -320 -20z"/>
<path d="M0 635 l0 -25 7925 0 7925 0 0 25 0 25 -7925 0 -7925 0 0 -25z"/>
</g>
</svg>
