<?xml version="1.0" standalone="no"?>
<!DOCTYPE svg PUBLIC "-//W3C//DTD SVG 20010904//EN"
 "http://www.w3.org/TR/2001/REC-SVG-20010904/DTD/svg10.dtd">
<svg version="1.0" xmlns="http://www.w3.org/2000/svg"
 width="458.000000pt" height="253.000000pt" viewBox="0 0 458.000000 253.000000"
 preserveAspectRatio="xMidYMid meet">

<g transform="translate(0.000000,253.000000) scale(0.100000,-0.100000)"
fill="#353743" stroke="none">
<path d="M1241 2499 c-89 -27 -179 -111 -211 -197 -44 -118 -20 -230 84 -385
62 -94 187 -232 215 -240 33 -8 245 222 296 323 84 165 69 311 -42 417 -68 64
-123 86 -223 89 -47 2 -100 -1 -119 -7z m187 -54 c112 -34 194 -135 194 -242
0 -114 -61 -227 -202 -377 l-84 -88 -53 56 c-139 149 -217 289 -218 392 0 114
74 216 187 255 65 23 109 24 176 4z"/>
<path d="M1294 2336 c-39 -17 -72 -59 -80 -102 -13 -68 66 -148 137 -140 77 9
119 53 119 126 0 56 -26 95 -76 116 -41 17 -60 17 -100 0z m98 -60 c10 -7 21
-27 24 -43 9 -48 -36 -90 -93 -84 -21 2 -53 44 -53 70 0 56 77 92 122 57z"/>
<path d="M1005 1801 c-105 -30 -206 -116 -248 -210 -30 -68 -30 -199 2 -263
26 -54 90 -117 149 -147 22 -11 132 -48 244 -81 236 -71 252 -76 297 -106 52
-35 71 -71 71 -137 0 -103 -51 -168 -164 -207 -50 -18 -83 -20 -344 -20 l-288
0 -16 -28 c-9 -16 -40 -50 -67 -76 -28 -26 -51 -49 -51 -52 0 -3 165 -4 368
-2 332 4 373 6 433 25 127 38 208 99 260 195 33 60 34 68 34 168 0 98 -2 109
-30 159 -57 103 -120 138 -405 222 -293 86 -342 118 -344 224 -1 98 59 153
233 214 l80 27 -57 57 c-33 32 -66 57 -77 56 -11 0 -47 -8 -80 -18z"/>
<path d="M1968 1608 l-3 -133 -97 -3 -98 -3 0 -64 0 -64 98 -3 97 -3 5 -330
c5 -307 6 -333 26 -375 27 -59 81 -106 146 -125 51 -15 230 -21 262 -9 12 5
16 21 16 73 l0 66 -99 0 c-85 0 -104 3 -128 21 -61 44 -63 59 -63 387 l0 297
145 0 145 0 0 65 0 65 -145 0 -145 0 0 135 0 135 -80 0 -79 0 -3 -132z"/>
<path d="M2880 1489 c-157 -31 -289 -166 -335 -344 -17 -68 -20 -247 -4 -315
30 -130 125 -253 241 -309 169 -83 395 -56 525 62 54 50 113 129 113 152 0 11
-111 55 -137 55 -6 0 -27 -22 -46 -49 -26 -35 -52 -57 -98 -80 -54 -27 -72
-31 -143 -31 -100 0 -165 27 -219 91 -37 43 -77 144 -77 195 l0 24 370 0 370
0 0 75 c0 333 -240 537 -560 474z m223 -151 c81 -24 156 -129 168 -233 l4 -30
-288 -3 -287 -2 6 27 c30 136 91 212 194 244 40 12 159 10 203 -3z"/>
<path d="M3949 1486 c-53 -14 -125 -55 -153 -85 -28 -31 -36 -26 -36 24 l0 45
-75 0 -75 0 0 -700 0 -700 85 0 85 0 0 255 0 255 44 -34 c107 -81 291 -96 422
-35 99 47 187 157 227 284 29 93 31 279 3 370 -52 172 -161 288 -305 321 -69
17 -161 17 -222 0z m176 -147 c53 -13 128 -76 154 -128 61 -121 57 -356 -7
-460 -27 -45 -66 -82 -107 -104 -61 -33 -193 -31 -255 3 -103 58 -145 160
-144 345 1 151 22 216 94 286 66 65 159 85 265 58z"/>
<path d="M401 1309 c-89 -27 -179 -111 -211 -197 -44 -118 -20 -230 84 -385
62 -94 187 -232 215 -240 33 -8 245 222 296 323 84 165 69 311 -42 417 -68 64
-123 86 -223 89 -47 2 -100 -1 -119 -7z m187 -54 c112 -34 194 -135 194 -242
0 -114 -61 -227 -202 -377 l-84 -88 -53 56 c-139 149 -217 289 -218 392 0 114
74 216 187 255 65 23 109 24 176 4z"/>
<path d="M454 1146 c-39 -17 -72 -59 -80 -102 -13 -68 66 -148 137 -140 77 9
119 53 119 126 0 56 -26 95 -76 116 -41 17 -60 17 -100 0z m98 -60 c10 -7 21
-27 24 -43 9 -48 -36 -90 -93 -84 -21 2 -53 44 -53 70 0 56 77 92 122 57z"/>
</g>
</svg>
